# xmcd
#
# Track frame offsets:
#	180
#	11783
#	25815
#	42620
#	50718
#	65644
#	85735
#	100746
#	123767
#	134417
#	140716
#	153696
#
# Disc length: 2273 seconds
#
# Revision: 1
# Processed by: cddbd v1.5.2PL0 Copyright (c) Steve Scherf et al.
# Submitted via: audiograbber 1.83.01
#
DISCID=ac08df0c
DTITLE=Limited Edition - The Best Of Limited Edition
DYEAR=1997
DGENRE=Gospel
TTITLE0=Jesus Is The Light
TTITLE1=He Came A Long Way
TTITLE2=Goodbye World Goodbye
TTITLE3=People Get Ready
TTITLE4=Never Part Again
TTITLE5=Pressed Through The Crowd
TTITLE6=This Could Be The Night
TTITLE7=I'll Face Nobodys Record
TTITLE8=Are You Washed
TTITLE9=Willing To Try
TTITLE10=Mama Loved The Lord
TTITLE11=Farther Along
EXTD=
EXTT0=
EXTT1=
EXTT2=
EXTT3=
EXTT4=
EXTT5=
EXTT6=
EXTT7=
EXTT8=
EXTT9=
EXTT10=
EXTT11=
PLAYORDER=
